<?xml version="1.0" encoding="UTF-8" standalone="no"?>
<!DOCTYPE svg PUBLIC "-//W3C//DTD SVG 1.1//EN" "http://www.w3.org/Graphics/SVG/1.1/DTD/svg11.dtd">
<svg version="1.1" xmlns="http://www.w3.org/2000/svg" xmlns:xlink="http://www.w3.org/1999/xlink" preserveAspectRatio="xMidYMid meet" viewBox="0 0 640 640" width="512" height="512"><defs><path d="M320 0C143.27 0 0 143.27 0 320C0 496.73 143.27 640 320 640C496.73 640 640 496.73 640 320C640 143.27 496.73 0 320 0Z" id="crWH8UVyf"></path><path d="M640 319.57C628.61 308.18 571.67 251.24 469.18 148.75L125.16 468.42C227.56 570.82 284.46 627.72 295.84 639.09C303.81 639.69 311.87 640 320 640C496.73 640 640 496.73 640 320C640 319.85 640 319.71 640 319.57Z" id="a3cG5Vxi0"></path><path d="M125.16 468.42C209.59 468.42 256.5 468.42 265.89 468.42C273.42 481.89 294.2 491.25 320 491.25C345.8 491.25 366.58 481.89 374.12 468.42C383.5 468.42 430.41 468.42 514.85 468.42L514.85 194.42L125.16 194.42L125.16 468.42Z" id="bQbBGsYyu"></path><path d="M514.85 468.42C430.41 468.42 383.5 468.42 374.11 468.42C366.58 481.89 345.8 491.25 320 491.25C320 471.46 320 372.52 320 194.42L514.85 194.42L514.85 468.42Z" id="d4EvcTOM00"></path><path d="M320 166.79L301.96 148.75L170.82 148.75L170.82 422.75L292.37 422.75L320 450.38L347.63 422.75L469.18 422.75L469.18 148.75L338.04 148.75L320 166.79Z" id="ar2RMW8yl"></path><path d="M469.18 422.75L347.63 422.75L320 450.38L320 166.79L338.04 148.75L469.18 148.75L469.18 422.75Z" id="a3sSrBukdw"></path></defs><g><g><g><use xlink:href="#crWH8UVyf" opacity="1" fill="#99f03a" fill-opacity="1"></use><g><use xlink:href="#crWH8UVyf" opacity="1" fill-opacity="0" stroke="#000000" stroke-width="1" stroke-opacity="0"></use></g></g><g><use xlink:href="#a3cG5Vxi0" opacity="1" fill="#bff03a" fill-opacity="1"></use><g><use xlink:href="#a3cG5Vxi0" opacity="1" fill-opacity="0" stroke="#000000" stroke-width="1" stroke-opacity="0"></use></g></g><g><use xlink:href="#bQbBGsYyu" opacity="1" fill="#5a5a5a" fill-opacity="1"></use><g><use xlink:href="#bQbBGsYyu" opacity="1" fill-opacity="0" stroke="#000000" stroke-width="1" stroke-opacity="0"></use></g></g><g><use xlink:href="#d4EvcTOM00" opacity="1" fill="#444444" fill-opacity="1"></use><g><use xlink:href="#d4EvcTOM00" opacity="1" fill-opacity="0" stroke="#000000" stroke-width="1" stroke-opacity="0"></use></g></g><g><use xlink:href="#ar2RMW8yl" opacity="1" fill="#e7e7e7" fill-opacity="1"></use><g><use xlink:href="#ar2RMW8yl" opacity="1" fill-opacity="0" stroke="#000000" stroke-width="1" stroke-opacity="0"></use></g></g><g><use xlink:href="#a3sSrBukdw" opacity="1" fill="#d3d3d8" fill-opacity="1"></use><g><use xlink:href="#a3sSrBukdw" opacity="1" fill-opacity="0" stroke="#000000" stroke-width="1" stroke-opacity="0"></use></g></g></g></g></svg>